<svg xmlns="http://www.w3.org/2000/svg" version="1.1" xmlns:xlink="http://www.w3.org/1999/xlink" xmlns:svgjs="http://svgjs.com/svgjs" width="2000" height="200" preserveAspectRatio="none" viewBox="0 0 2000 200">
    <g mask="url(&quot;#SvgjsMask1086&quot;)" fill="none">
        <rect width="2000" height="200" x="0" y="0" fill="rgba(189, 54, 42, 1)"></rect>
        <path d="M -404.66819876927616,123 C -354.67,115.4 -254.67,80.4 -154.66819876927613,85 C -54.67,89.6 -4.67,147.6 95.33180123072387,146 C 195.33,144.4 245.33,73 345.33180123072384,77 C 445.33,81 495.33,171.8 595.3318012307238,166 C 695.33,160.2 745.33,58.4 845.3318012307238,48 C 945.33,37.6 995.33,116 1095.3318012307238,114 C 1195.33,112 1245.33,34.6 1345.3318012307238,38 C 1445.33,41.4 1495.33,122.4 1595.3318012307238,131 C 1695.33,139.6 1764.4,77.2 1845.3318012307238,81 C 1926.27,84.8 1969.07,136.2 2000,150" stroke="rgba(255, 255, 255, 0.31)" stroke-width="2"></path>
        <path d="M -439.3001925475568,50 C -389.3,65.8 -289.3,131.8 -189.3001925475568,129 C -89.3,126.2 -39.3,35.2 60.699807452443196,36 C 160.7,36.8 210.7,131.6 310.6998074524432,133 C 410.7,134.4 460.7,47.6 560.6998074524432,43 C 660.7,38.4 710.7,102.2 810.6998074524432,110 C 910.7,117.8 960.7,71.6 1060.699807452443,82 C 1160.7,92.4 1210.7,163.6 1310.699807452443,162 C 1410.7,160.4 1460.7,80.6 1560.699807452443,74 C 1660.7,67.4 1722.84,125.8 1810.699807452443,129 C 1898.56,132.2 1962.14,97.8 2000,90" stroke="rgba(255, 255, 255, 0.31)" stroke-width="2"></path>
        <path d="M -463.21648573512084,83 C -413.22,89 -313.22,118.8 -213.21648573512087,113 C -113.22,107.2 -63.22,50.2 36.78351426487913,54 C 136.78,57.8 186.78,134.8 286.78351426487916,132 C 386.78,129.2 436.78,40.4 536.7835142648792,40 C 636.78,39.6 686.78,120.2 786.7835142648792,130 C 886.78,139.8 936.78,90.8 1036.7835142648792,89 C 1136.78,87.2 1186.78,132.4 1286.7835142648792,121 C 1386.78,109.6 1436.78,22.8 1536.7835142648792,32 C 1636.78,41.2 1694.14,159.8 1786.7835142648792,167 C 1879.43,174.2 1957.36,87.8 2000,68" stroke="rgba(255, 255, 255, 0.31)" stroke-width="2"></path>
    </g>
    <defs>
        <mask id="SvgjsMask1086">
            <rect width="2000" height="200" fill="#ffffff"></rect>
        </mask>
    </defs>
</svg>